# xmcd
#
# Track frame offsets:
#	150
#	11745
#	22674
#	36078
#	59089
#	75847
#	85978
#	99109
#	111520
#	131950
#	144253
#	159485
#	177791
#	190113
#	203208
#	214530
#	233673
#	253353
#	268239
#	282265
#	294089
#	313917
#	331197
#
# Disc length: 4826 seconds
#
# Revision: 2
# Processed by: cddbd v1.5.2PL0 Copyright (c) Steve Scherf et al.
# Submitted via: audiograbber 1.83.01
#
DISCID=4212d817
DTITLE=Various Artist - Where Country Meets Soul Vol. 2 - Sweet Dreams
DYEAR=2013
DGENRE=Country
TTITLE0=The Sweet Inspirations - But You Know I Love You
TTITLE1=William Bell - Please Help Me, I'm Falling
TTITLE2=Clarence Carter - Bad News
TTITLE3=Hank Ballard - Sunday Morning Comin' Down
TTITLE4=The Facts Of Life - Sometimes
TTITLE5=Pat Lundy - Only Mama That'll Walk The Line
TTITLE6=Otis Redding - Tennessee Waltz
TTITLE7=Bobby Hebb - A Satisfied Mind
TTITLE8=Ralph Lamar - Don't Let Me Cross Over
TTITLE9=Joe Simon - Help Me Make It Through The Night
TTITLE10=Ted Taylor - I'll Release You
TTITLE11=Millie Jackson - Sweet Music Man
TTITLE12=James Carr - Tell Me My Lying Eyes Are Wrong
TTITLE13=Bettye Swann - Don't You Ever Get Tired (Of Hurting Me)
TTITLE14=Johnnie Taylor - Sixteen Tons
TTITLE15=Bobby Bland - I Hate You
TTITLE16=David Ruffin - Statue Of A Fool
TTITLE17=Esther Pjillips - Sweet Dreams
TTITLE18=Eddie James - All I Have To Offer You (Is Me)
TTITLE19=Etta James - When I Stop Dreaming
TTITLE20=Isaac Hayes - I Can't Help It (If I'm Still In Love With You)
TTITLE21=Dorothy Moore - Funny How Time Slips Away
TTITLE22=Orquestra Was feat. Sweet Pea Atkinson - Forever's A Long, Long Time
EXTD=
EXTT0=
EXTT1=
EXTT2=
EXTT3=
EXTT4=
EXTT5=
EXTT6=
EXTT7=
EXTT8=
EXTT9=
EXTT10=
EXTT11=
EXTT12=
EXTT13=
EXTT14=
EXTT15=
EXTT16=
EXTT17=
EXTT18=
EXTT19=
EXTT20=
EXTT21=
EXTT22=
PLAYORDER=
